<svg xmlns="http://www.w3.org/2000/svg" width="308.7612359841165" height="304.915625" viewBox="0 0 924 894" version="1.1"><path d="M 422.500 18.679 C 362.032 22.530, 300.528 39.268, 250 65.624 C 231.174 75.443, 219 83.128, 219 85.193 C 219 86.328, 215.160 89.511, 208.250 94.105 C 168.718 120.383, 133.246 152.965, 105.480 188.500 C 76.392 225.728, 49.589 277.905, 37.006 321.798 C 33.712 333.290, 33.519 334.415, 35 333.500 C 36.420 332.623, 36.297 333.598, 33.531 345.170 C 16.455 416.629, 17.194 487.574, 35.656 549 C 39.081 560.395, 48.911 586.187, 51.663 591 C 53.040 593.408, 53.070 593.352, 52.459 589.500 C 52.110 587.300, 51.751 585.106, 51.662 584.625 C 51.573 584.144, 52.021 583.557, 52.658 583.322 C 53.325 583.076, 54.734 585.359, 55.978 588.697 C 58.207 594.683, 65.592 610.806, 76.517 633.532 C 82.437 645.850, 90.769 657.511, 92.465 655.853 C 92.829 655.498, 91.316 651.606, 89.103 647.204 C 70.309 609.826, 54.965 560.792, 49.141 519.500 C 45.337 492.535, 45.628 479.683, 49.533 502.188 C 51.027 510.798, 53.249 518, 54.411 518 C 54.694 518, 54.829 496.288, 54.713 469.750 C 54.503 422.179, 54.534 421.348, 56.887 410.720 C 58.199 404.791, 59.458 400.124, 59.683 400.350 C 59.908 400.575, 59.605 404.526, 59.009 409.130 C 57.215 422.988, 56.678 451.438, 57.890 468.500 C 59.667 493.540, 65.113 524.542, 69.835 536.494 C 71.361 540.358, 71.438 540.407, 72.182 537.994 C 72.639 536.514, 72.721 537.511, 72.385 540.448 C 71.872 544.922, 71.973 545.267, 73.433 544.055 C 74.322 543.318, 75.186 542.892, 75.355 543.107 C 75.524 543.323, 80.043 553.770, 85.398 566.323 C 98.898 597.972, 102.921 606.416, 111.011 620.088 C 119.518 634.464, 129.467 647.798, 142.656 662.500 C 148.083 668.550, 153.382 674.850, 154.432 676.500 C 155.482 678.150, 158.065 681.554, 160.171 684.064 C 163.145 687.610, 164 689.482, 164 692.449 C 164 700.814, 187.040 733.896, 206.300 753.188 C 224.707 771.626, 242.058 788.277, 249 794.168 C 278.660 819.336, 318.828 841.072, 364.500 856.667 C 392.375 866.186, 413.123 870.835, 444 874.481 C 451.425 875.358, 462.725 876.958, 469.111 878.038 C 489.038 881.405, 510.588 880.302, 548.032 873.996 C 573.569 869.695, 587.984 866.554, 605.500 861.474 C 707.314 831.947, 799.358 759.484, 852.477 667.040 C 882.965 613.981, 900.506 559.299, 907.664 495 C 910.054 473.527, 910.061 425.490, 907.677 404.243 C 903.791 369.610, 896.506 336.304, 886.352 306.747 C 880.016 288.303, 869.990 264.741, 868.500 264.794 C 866.408 264.869, 864.622 262.217, 858.401 249.803 C 813.097 159.393, 735.766 87.382, 645.972 51.989 C 641.656 50.288, 641.160 50.253, 641.712 51.693 C 642.451 53.616, 644.590 54.201, 619.500 45.620 C 599.134 38.655, 580.986 33.705, 560.983 29.660 C 542.325 25.887, 503.671 20.680, 482.050 19.028 C 469.835 18.094, 434.892 17.890, 422.500 18.679 M 463.805 120.668 C 462.868 120.921, 462.346 121.737, 462.636 122.493 C 462.990 123.415, 461.911 124.209, 459.330 124.925 C 454.106 126.376, 453.689 126.299, 454.290 124 C 454.652 122.615, 454.303 121.969, 453.156 121.898 C 452.245 121.842, 449.097 121.611, 446.160 121.385 C 441.537 121.030, 440.752 121.233, 440.316 122.900 C 439.787 124.921, 439.174 125.038, 421 126.578 C 416.230 126.982, 412.820 127.812, 411.631 128.857 C 409.882 130.395, 409.666 130.356, 408.259 128.250 C 407.306 126.823, 405.795 126.026, 404.128 126.070 C 401.779 126.133, 401.712 126.228, 403.500 126.967 C 406.985 128.407, 397.149 132.012, 386.689 133.128 C 375.024 134.373, 351.765 142.001, 330.500 151.555 C 327.200 153.038, 323.600 154.362, 322.500 154.498 C 321.400 154.634, 320.163 154.802, 319.750 154.872 C 319.337 154.943, 319 155.639, 319 156.419 C 319 157.199, 318.212 159.248, 317.250 160.971 C 315.607 163.914, 315.195 164.086, 310.500 163.802 C 305.661 163.510, 305.510 163.582, 305.796 166.056 C 306.098 168.663, 304.426 170.055, 299.250 171.505 C 295.977 172.421, 296.452 170.618, 300.750 165.814 C 304.851 161.231, 304.494 161.352, 295.187 167.696 C 291.715 170.063, 288.007 172, 286.947 172 C 285.218 172, 273.418 181.664, 273.557 182.967 C 273.588 183.260, 274.938 183.744, 276.557 184.041 C 279.305 184.547, 279.367 184.655, 277.500 185.675 C 276.400 186.276, 273.475 187.098, 271 187.502 C 266.269 188.274, 261.846 190.164, 258.500 192.842 C 257.400 193.723, 258.412 192.414, 260.750 189.934 C 264.675 185.769, 266.076 182.995, 264.250 183.003 C 262.971 183.009, 250.561 194.220, 245.581 199.869 C 242.978 202.822, 237.424 209.572, 233.240 214.869 C 229.056 220.166, 222.677 228.081, 219.066 232.458 L 212.500 240.415 212 234.198 L 211.500 227.980 204 237.109 C 162.556 287.553, 138.462 349.426, 129.479 428.474 C 128.847 434.035, 128.698 434.311, 127.314 432.474 C 126.190 430.981, 125.934 428.555, 126.262 422.517 C 126.596 416.385, 126.442 414.980, 125.598 416.458 C 124.994 417.517, 123.585 419.344, 122.468 420.519 C 120.505 422.582, 120.437 423.808, 120.488 456.078 C 120.527 480.184, 120.908 490.965, 121.855 494.757 C 123.099 499.734, 125 501.084, 125 496.990 C 125 495.950, 125.491 492.809, 126.091 490.011 C 127.007 485.740, 127.479 485.017, 129.031 485.510 C 131.830 486.398, 132.988 480.643, 132.994 465.817 C 132.999 454.293, 133.171 453.080, 134.877 452.539 C 136.142 452.138, 136.968 450.604, 137.411 447.832 C 138.153 443.193, 144.699 428.366, 145.606 429.272 C 145.930 429.597, 145.701 432.165, 145.098 434.980 C 144.494 437.795, 144 441.426, 144 443.049 C 144 445.005, 143.494 446, 142.500 446 C 141.330 446, 141 447.347, 141 452.126 C 141 455.496, 140.277 465.733, 139.394 474.876 C 137.902 490.315, 137.948 509.281, 139.480 510.813 C 140.796 512.130, 141.967 508.295, 141.775 503.296 C 141.587 498.428, 142.298 495.965, 143.534 497.201 C 144.816 498.482, 146.122 511.314, 145.907 520.500 C 145.735 527.819, 146.249 533.047, 147.823 540 C 149.221 546.176, 149.978 552.926, 149.987 559.290 C 149.998 567.264, 150.392 569.848, 152.114 573.223 C 155.492 579.844, 158.749 589.064, 165.637 611.500 C 169.182 623.050, 172.901 633.634, 173.901 635.019 C 174.901 636.405, 176.045 638.566, 176.444 639.822 C 177.030 641.670, 177.442 641.878, 178.603 640.915 C 179.726 639.982, 180.413 640.046, 181.769 641.210 C 182.721 642.027, 184.288 642.975, 185.250 643.317 C 186.576 643.787, 187 645.061, 187 648.576 C 187 652.215, 186.688 653.094, 185.551 652.658 C 182.457 651.471, 182.810 655.908, 186.184 660.622 C 189.303 664.979, 209.552 684, 211.072 684 C 211.458 684, 212.006 682.538, 212.291 680.750 C 212.696 678.204, 211.829 675.658, 208.287 669 C 205.800 664.325, 201.793 657.719, 199.383 654.321 C 196.972 650.922, 195 647.213, 195 646.078 C 195 644.944, 193.024 640.074, 190.608 635.258 C 185.695 625.461, 184.400 620.895, 185.817 618.363 C 186.595 616.972, 187.553 618.277, 190.904 625.298 C 193.174 630.055, 195.961 634.444, 197.098 635.053 C 199.004 636.073, 199.034 636.255, 197.480 637.391 C 195.958 638.504, 196.284 639.270, 200.850 645.302 C 205.738 651.760, 207.973 657.617, 206.474 660.042 C 205.966 660.864, 206.384 661.013, 207.875 660.540 C 209.776 659.936, 210 660.249, 210 663.498 C 210 668.117, 211.535 671, 213.993 671 C 216.833 671, 223.882 678.161, 224.607 681.783 C 225.081 684.153, 225.828 684.961, 227.760 685.195 C 229.784 685.439, 230.544 686.359, 231.550 689.782 C 233.094 695.038, 234.084 696.260, 240.842 701.252 C 245.637 704.795, 247.040 706.784, 249.338 713.293 C 249.828 714.684, 250.366 714.860, 251.735 714.077 C 256.421 711.396, 256.398 711.502, 253.426 706.040 C 251.873 703.187, 249.342 699.955, 247.801 698.858 C 244.371 696.416, 244.164 694.752, 247.391 695.562 C 251.664 696.634, 251.133 694.232, 246.391 691.031 C 243.844 689.312, 241.534 688.133, 241.257 688.410 C 240.360 689.307, 241.953 692.147, 242.993 691.504 C 243.547 691.162, 244 691.359, 244 691.941 C 244 693.733, 242.492 693.126, 239.799 690.250 C 235.069 685.197, 235.435 679.426, 240.218 683.652 L 242.310 685.500 240.532 682.738 C 239.554 681.219, 235.214 677.047, 230.887 673.467 C 222.654 666.656, 219 661.299, 219 656.040 C 219 653.215, 219.255 653, 222.611 653 C 226.181 653, 226.215 653.039, 225.580 656.423 C 225.033 659.341, 225.254 659.946, 227.080 660.525 C 228.257 660.899, 230.859 662.654, 232.861 664.426 C 234.862 666.197, 237.595 668.389, 238.934 669.296 C 241.735 671.195, 242.501 674.998, 240.083 675.004 C 239.149 675.006, 239.730 675.762, 241.500 676.848 C 243.150 677.860, 248.479 683.031, 253.341 688.338 C 259.416 694.967, 263.587 698.608, 266.670 699.972 C 269.634 701.283, 274.623 705.529, 281.365 712.478 C 286.979 718.265, 292.171 723, 292.903 723 C 293.712 723, 294.041 723.736, 293.743 724.876 C 293.354 726.363, 294.474 727.337, 299.132 729.563 C 302.899 731.363, 304.572 732.647, 303.785 733.133 C 302.315 734.041, 301.771 733.545, 311 739.706 C 320.767 746.226, 325.563 748.604, 330.660 749.453 C 333.849 749.984, 334.953 750.675, 335.390 752.416 C 335.703 753.665, 337.162 755.890, 338.633 757.360 C 341.115 759.842, 343.308 760.671, 356.357 764.059 C 359.339 764.833, 362.428 766.552, 364.357 768.512 C 366.716 770.907, 368.722 771.865, 372.396 772.353 C 375.292 772.737, 377.801 772.580, 378.536 771.970 C 380.288 770.516, 387 774.584, 387 777.099 C 387 778.722, 387.768 779.004, 392.250 779.029 C 395.137 779.045, 403.800 780.172, 411.500 781.532 C 441.548 786.842, 451.399 788.057, 462.500 787.821 C 471.426 787.632, 474.206 787.930, 477.242 789.404 C 480.761 791.112, 484 791.047, 484 789.269 C 484 788.832, 481.042 787.628, 477.426 786.592 C 473.810 785.557, 471.344 784.405, 471.946 784.033 C 472.548 783.661, 476.519 783.453, 480.770 783.570 C 486.445 783.727, 488.575 784.153, 488.782 785.175 C 489.011 786.308, 490.502 786.412, 496.782 785.733 C 501.027 785.275, 505.948 784.448, 507.717 783.897 C 509.912 783.213, 511.559 783.229, 512.901 783.947 C 515.454 785.313, 525.833 785.303, 529.771 783.930 C 531.459 783.342, 533.110 782.156, 533.440 781.296 C 533.943 779.984, 533.379 779.820, 529.946 780.280 C 526.585 780.731, 525.954 780.562, 526.426 779.333 C 526.742 778.510, 527 777.423, 527 776.918 C 527 775.682, 530.670 775.753, 533.066 777.035 C 534.130 777.605, 535 778.673, 535 779.410 C 535 781.721, 540.892 782.230, 543.540 780.147 L 545.882 778.305 540.795 778.794 C 533.395 779.505, 535.455 777.523, 544.261 775.458 C 548.242 774.524, 555.100 773.639, 559.500 773.490 C 565.525 773.287, 568.900 772.587, 573.169 770.658 C 581.725 766.792, 598.235 762.769, 604.868 762.934 C 608.724 763.029, 614.067 760.073, 616.358 756.577 C 617.420 754.956, 619.300 753.959, 622.211 753.473 C 624.570 753.080, 628.525 751.744, 631 750.505 C 633.475 749.267, 642.628 745.202, 651.341 741.473 C 660.053 737.744, 669.728 732.931, 672.841 730.777 C 675.953 728.623, 681.988 724.551, 686.250 721.727 C 690.886 718.656, 694 715.906, 694 714.885 C 694 712.526, 699.042 708.508, 707.080 704.460 C 714.203 700.873, 717 698.018, 717 694.337 C 717 691.812, 718.458 690.627, 721.658 690.552 C 723.227 690.515, 725.115 688.651, 728.183 684.110 C 730.557 680.596, 733.737 675.893, 735.250 673.659 C 736.763 671.426, 738 668.450, 738 667.047 C 738 665.038, 738.972 663.981, 742.575 662.069 C 748.684 658.829, 752.628 654.029, 762.111 638.294 C 766.489 631.030, 771.984 623.155, 774.322 620.794 C 777.807 617.273, 785.072 604, 783.514 604 C 783.277 604, 781.832 606.138, 780.302 608.750 C 776.202 615.749, 764.523 631.185, 754.340 643.066 C 749.421 648.804, 742.540 657.100, 739.049 661.500 L 732.703 669.500 727.851 669.158 C 724.803 668.943, 723 669.222, 723 669.908 C 723 670.509, 723.994 671, 725.208 671 C 727.160 671, 726.898 671.535, 722.958 675.598 C 720.506 678.127, 713.100 684.038, 706.500 688.733 C 699.900 693.427, 691.726 699.908, 688.337 703.134 C 684.947 706.360, 681.263 709, 680.150 709 C 679.037 709, 675.208 710.998, 671.642 713.440 C 662.275 719.853, 657.319 722.161, 653.676 721.808 C 650.653 721.515, 650.874 721.291, 658.287 717.160 C 662.570 714.772, 667.035 711.519, 668.210 709.930 C 669.892 707.655, 670.638 707.284, 671.724 708.186 C 672.816 709.092, 674.185 708.285, 678.301 704.311 C 685.327 697.527, 687.830 696, 691.923 696 C 694.627 696, 695.133 695.733, 694.200 694.800 C 692.327 692.927, 692.774 692, 695.550 692 C 698.663 692, 704.265 689.238, 703.538 688.062 C 702.604 686.550, 709.398 677.679, 712.727 676.065 C 714.914 675.004, 715.962 673.781, 715.977 672.269 C 715.994 670.603, 717.201 669.465, 720.750 667.769 C 724.157 666.142, 726.407 664.086, 728.706 660.500 C 733.998 652.248, 736.197 649.816, 739.681 648.360 C 743.426 646.795, 743.738 645.517, 741.186 642.201 L 739.417 639.901 734.712 643.494 C 732.124 645.470, 729.319 648.417, 728.478 650.043 C 726.558 653.755, 723.496 654.144, 724.395 650.561 C 725.077 647.844, 723.723 646.339, 722.325 648.261 C 721.830 648.942, 720.633 651.245, 719.667 653.378 L 717.910 657.257 720.205 656.675 C 722.118 656.189, 721.878 656.667, 718.765 659.546 C 713.321 664.579, 710.805 663.601, 714.720 657.973 L 716.439 655.500 713.970 657.083 C 712.611 657.953, 708.923 662.413, 705.774 666.993 C 699.035 676.793, 696.461 679.690, 692.800 681.595 C 688.430 683.868, 686.246 683.398, 685.505 680.024 C 684.654 676.148, 685.643 674.693, 688.621 675.441 C 690.571 675.930, 691.251 675.522, 692.232 673.272 C 692.897 671.747, 694.917 668.312, 696.721 665.638 C 698.524 662.964, 700 660.151, 700 659.388 C 700 657.645, 704.983 657.509, 705.044 659.250 C 705.069 659.938, 705.924 658.919, 706.946 656.988 C 707.968 655.056, 712.444 649.431, 716.893 644.488 C 722.445 638.319, 725.626 633.803, 727.037 630.090 C 729.513 623.571, 731.607 620.474, 739.178 612.128 C 742.358 608.623, 745.509 604.234, 746.182 602.375 C 747.110 599.806, 747.836 599.131, 749.202 599.564 C 750.574 600, 751 599.594, 751 597.851 C 751 594.197, 754.184 586.680, 755.103 588.166 C 755.536 588.868, 756.028 589.230, 756.196 588.971 C 756.363 588.712, 758.946 583.667, 761.935 577.761 C 766.191 569.352, 767.462 565.756, 767.793 561.190 C 768.178 555.865, 768.462 555.264, 771.058 554.284 C 774.944 552.817, 777.793 547.729, 778.458 541.066 C 779.326 532.371, 780.937 526.699, 783.234 524.253 C 785.718 521.607, 786.555 513.141, 784.597 510.463 C 783.591 509.088, 783.646 508.112, 784.884 505.381 C 785.727 503.521, 787.110 502, 787.958 502.001 C 789.281 502.001, 789.504 499.761, 789.531 486.251 C 789.547 477.588, 789.772 461.050, 790.031 449.500 C 790.390 433.428, 790.165 427.092, 789.071 422.500 C 787.484 415.833, 787.550 413.754, 789.475 409.809 C 790.625 407.452, 790.562 406.913, 788.966 405.469 C 787.847 404.456, 786.365 404.067, 785.126 404.460 C 783.290 405.043, 783.157 404.760, 783.639 401.300 C 783.930 399.210, 784.548 396.290, 785.011 394.811 C 785.627 392.844, 785.449 391.788, 784.349 390.874 C 782.378 389.239, 778.001 380.565, 777.995 378.283 C 777.992 377.302, 778.727 374.443, 779.628 371.929 C 781.265 367.362, 781.264 367.355, 778.633 364.724 C 777.185 363.276, 776 361.496, 776 360.768 C 776 360.040, 775.243 358.365, 774.319 357.045 C 772.163 353.967, 771.997 350.137, 773.964 348.872 C 775.269 348.033, 775.285 347.796, 774.069 347.298 C 770.675 345.909, 768.090 341.498, 766.109 333.711 C 764.960 329.195, 762.677 322.913, 761.036 319.750 C 759.396 316.587, 758.510 314, 759.068 314 C 759.626 314, 760.911 315.913, 761.925 318.250 C 763.765 322.493, 763.769 322.496, 764.490 319.761 C 765.008 317.793, 764.618 316.018, 763.104 313.451 C 761.945 311.487, 761.403 310.131, 761.899 310.438 C 762.396 310.745, 762.757 309.408, 762.702 307.467 C 762.623 304.688, 762.125 303.819, 760.358 303.375 C 759.124 303.065, 757.605 303.126, 756.983 303.510 C 756.232 303.975, 756.266 303.547, 757.084 302.237 C 758.398 300.133, 757.755 297, 756.010 297 C 755.431 297, 754.439 298.138, 753.805 299.528 C 752.969 301.363, 752.430 301.706, 751.842 300.778 C 750.548 298.739, 750.872 295.351, 752.489 294.009 C 754.629 292.233, 753.405 291, 749.500 291 C 745.777 291, 744.671 290.022, 745.614 287.565 C 746.107 286.278, 746.528 286.193, 747.680 287.149 C 748.904 288.166, 749.021 287.902, 748.444 285.425 C 747.615 281.868, 745.585 278.408, 742.183 274.750 C 740.666 273.119, 740.159 272, 740.935 272 C 741.942 272, 741.977 271.677, 741.087 270.605 C 740.451 269.838, 740.027 268.826, 740.145 268.355 C 740.419 267.269, 737.022 261.238, 734.835 258.929 C 733.920 257.962, 731.633 254.770, 729.754 251.835 C 725.802 245.663, 718.729 237.029, 708.244 225.577 C 704.177 221.134, 698.571 214.463, 695.787 210.750 C 692.297 206.096, 690.060 204, 688.585 204 C 685.561 204, 682.519 201.615, 678.975 196.464 C 676.394 192.713, 671.987 189.172, 662.840 183.500 C 661.953 182.950, 659.713 181.318, 657.863 179.874 C 656.014 178.430, 646.530 173.185, 636.790 168.219 C 609.215 154.159, 583.885 144.817, 551.779 136.865 C 542.276 134.511, 534.288 132.429, 534.029 132.238 C 533.770 132.047, 534.220 131.442, 535.029 130.894 C 536.468 129.918, 545.034 130.285, 550 131.536 C 552.352 132.128, 552.307 131.998, 549.241 129.333 C 547.449 127.775, 545.986 125.938, 545.991 125.250 C 546.005 123.363, 538.966 123.664, 537.543 125.611 C 536.464 127.086, 536.221 127.078, 534.655 125.512 C 532.594 123.451, 524.268 122.007, 525.448 123.915 C 525.926 124.690, 525.435 125.335, 524.101 125.684 C 522.945 125.986, 522 126.631, 522 127.117 C 522 128.830, 519.025 127.957, 511.378 124 C 507.126 121.800, 503.041 120, 502.299 120 C 501.557 120, 500.539 121.081, 500.037 122.403 C 499.534 123.724, 498.601 125.128, 497.963 125.523 C 497.325 125.917, 492.077 125.191, 486.302 123.909 C 476.600 121.756, 475.593 121.697, 473.074 123.143 C 470.501 124.620, 470.296 124.590, 469.424 122.609 C 468.475 120.454, 466.776 119.867, 463.805 120.668 M 511 122.551 C 511 123.314, 517.594 126, 519.468 126 C 522.375 126, 520.989 124.313, 517.134 123.158 C 512.901 121.890, 511 121.702, 511 122.551 M 290 449 L 290 649.115 381.250 648.728 C 479.081 648.314, 479.777 648.281, 504.954 642.866 C 563.997 630.166, 606.627 594.729, 626.292 542 C 638.288 509.836, 643.375 465.394, 639.983 422.395 C 632.031 321.598, 581.220 265.903, 483.954 251.369 C 473.956 249.875, 460.904 249.609, 381.250 249.272 L 290 248.885 290 449 M 355 449.100 L 355 594.200 408.750 593.734 C 466.562 593.232, 471.840 592.833, 492 587.429 C 497.225 586.029, 506 582.706, 511.500 580.045 C 545.408 563.642, 563.869 536.701, 571.491 492.500 C 575.121 471.450, 575.132 427.131, 571.512 405.914 C 566.401 375.954, 556.596 354.588, 540.532 338.410 C 520.263 317.995, 494.706 307.638, 458.083 304.997 C 450.612 304.458, 424.363 304.014, 399.750 304.009 L 355 304 355 449.100 M 188.239 653.810 C 186.835 654.725, 189.612 657.775, 193.836 659.956 C 196.987 661.583, 197.249 661.012, 195.220 656.946 C 193.501 653.502, 190.667 652.228, 188.239 653.810 M 215.571 685.500 C 216.926 691.132, 218.123 693.500, 221.258 696.750 C 224.874 700.499, 223.514 701.132, 219.327 697.649 C 215.835 694.744, 211.994 692.672, 211.331 693.336 C 209.793 694.873, 228.428 710.505, 239.500 716.965 C 243.060 719.042, 242.661 718.429, 235.879 711.400 C 228.478 703.729, 228.285 703.402, 229.189 700.128 C 229.701 698.273, 229.838 696.023, 229.493 695.128 C 228.925 693.654, 228.772 693.666, 227.883 695.250 C 227.343 696.212, 226.485 697, 225.976 697 C 225.468 697, 222.757 693.737, 219.951 689.750 C 216.063 684.224, 215.022 683.213, 215.571 685.500 M 255.277 746.380 C 258.049 749.072, 260.305 752.273, 260.652 754.009 C 261.283 757.167, 263.620 757.980, 265.800 755.800 C 267.101 754.499, 268.629 755.471, 269.179 757.948 C 269.355 758.745, 271.975 761.061, 275 763.095 C 278.025 765.129, 283.200 768.861, 286.500 771.386 C 289.800 773.912, 293.035 775.984, 293.689 775.989 C 294.343 775.995, 296.986 777.824, 299.562 780.054 C 302.268 782.396, 310.720 787.212, 319.575 791.457 C 328.006 795.500, 336.838 800.154, 339.202 801.799 C 341.566 803.445, 345.300 805.053, 347.500 805.372 C 349.700 805.691, 355.325 807.530, 360 809.458 C 369.328 813.305, 378 814.289, 378 811.500 C 378 810.383, 376.820 810, 373.383 810 C 369.072 810, 368.797 809.844, 369.218 807.642 C 369.628 805.493, 368.640 804.810, 358.084 799.956 C 341.692 792.418, 307.795 775.512, 299.500 770.739 C 291.756 766.282, 282.447 759.154, 270.868 748.815 C 266.670 745.067, 263.010 742, 262.734 742 C 262.459 742, 262.003 742.882, 261.721 743.960 C 261.288 745.614, 260.745 745.787, 258.243 745.070 C 256.613 744.602, 254.204 743.662, 252.889 742.981 C 251.488 742.255, 252.475 743.660, 255.277 746.380" stroke="none" fill="#fc1a04" fill-rule="evenodd"/></svg>